<?xml version="1.0" encoding="UTF-8"?>
<svg width="1266px" height="196px" viewBox="0 0 1266 196" version="1.1" xmlns="http://www.w3.org/2000/svg" xmlns:xlink="http://www.w3.org/1999/xlink">
    <!-- Generator: Sketch 63.1 (92452) - https://sketch.com -->
    <title>mobWOW-Base-Logo-Red</title>
    <desc>Created with Sketch.</desc>
    <g id="Page-1" stroke="none" stroke-width="1" fill="none" fill-rule="evenodd">
        <g id="mobWOW-Base-Logo-Red">
            <path d="M452,0 L452.000304,75.0484906 C464.532254,63.2381867 481.420842,56 500,56 C538.659932,56 570,87.3400675 570,126 C570,164.659932 538.659932,196 500,196 C481.420842,196 464.532254,188.761813 452.000304,176.951509 L452,196 L430,196 L430,0 L452,0 Z M344,56 C382.659932,56 414,87.3400675 414,126 C414,164.659932 382.659932,196 344,196 C305.340068,196 274,164.659932 274,126 C274,87.3400675 305.340068,56 344,56 Z M188,56 C226.659932,56 258,87.3400675 258,126 L258,196 L236,196 L236,126 C236,99.490332 214.509668,78 188,78 C161.755429,78 140.430309,99.0626744 140.006431,125.206232 L140,126 L140,196 L118,196 L118,126 C118,99.490332 96.509668,78 70,78 C43.490332,78 22,99.490332 22,126 L22,196 L0,196 L0,126 C0,87.3400675 31.3400675,56 70,56 C94.7855475,56 116.562402,68.8817474 129.000778,88.3154575 C141.437598,68.8817474 163.214452,56 188,56 Z M500,78 C473.490332,78 452,99.490332 452,126 C452,152.509668 473.490332,174 500,174 C526.509668,174 548,152.509668 548,126 C548,99.490332 526.509668,78 500,78 Z M344,78 C317.490332,78 296,99.490332 296,126 C296,152.509668 317.490332,174 344,174 C370.509668,174 392,152.509668 392,126 C392,99.490332 370.509668,78 344,78 Z" id="Combined-Shape-Copy-15" fill="#000"></path>
            <path d="M918,16 C967.705627,16 1008,56.2943725 1008,106 C1008,155.705627 967.705627,196 918,196 C868.294373,196 828,155.705627 828,106 C828,56.2943725 868.294373,16 918,16 Z M699.198239,0.000861733839 C699.243227,0.00125930223 699.288227,0.00179456061 699.333239,0.00246776584 C699.385267,0.00337519247 699.436597,0.00434047346 699.487907,0.00548425202 C699.681084,0.00956229085 699.875046,0.0163727888 700.069163,0.0257624809 C700.081386,0.0266944227 700.093043,0.0272711018 700.104699,0.0278569742 C700.309775,0.0377564975 700.515563,0.0509246556 700.721467,0.0670118263 C700.762068,0.0706860436 700.802424,0.0739588201 700.842762,0.0773415927 C701.036347,0.0930210002 701.230503,0.111852602 701.424705,0.133300594 C701.450869,0.136781145 701.477212,0.139740037 701.503547,0.14274583 C701.81613,0.177813296 702.128712,0.220242802 702.441209,0.269536974 L702.807323,0.330926364 C702.946934,0.355325592 703.086244,0.381048977 703.225236,0.408088164 C703.392151,0.440248063 703.558738,0.474701003 703.725227,0.511142893 C703.875076,0.54406552 704.024027,0.578222482 704.172556,0.613893944 C704.194534,0.619202371 704.216902,0.62462142 704.239268,0.630076704 C704.439908,0.678870423 704.639305,0.730355305 704.837868,0.784566988 C704.884793,0.797760559 704.931771,0.810776095 704.978734,0.82395379 C705.16842,0.876649289 705.357305,0.932261592 705.545363,0.99034343 L705.593546,1.00601661 L705.593546,1.00601661 C706.240204,1.20660431 706.877109,1.43718851 707.502071,1.69607859 C707.54356,1.71394014 707.585391,1.73138831 707.627142,1.74895065 L707.701925,1.78000618 C707.85325,1.84441954 708.003855,1.91050037 708.153712,1.97823538 C708.384071,2.08230992 708.611908,2.18976347 708.837131,2.30065443 L709.145799,2.45645556 L709.145799,2.45645556 C710.705741,3.25399847 712.136217,4.21842716 713.424092,5.3184416 C713.467611,5.35618448 713.5117,5.39406788 713.555649,5.43213353 C713.596872,5.46748806 713.637547,5.50305523 713.678076,5.53875864 C716.150084,7.71201861 718.169699,10.4671373 719.502473,13.7001744 L719.697208,14.1887014 L730.731785,42.8389787 L755.475,107.082 L772.481835,53.7307181 L784.694082,15.4183029 C788.40363,3.7806549 800.870601,-2.65448181 812.539842,1.04502178 C824.09239,4.70753303 830.532114,16.9299565 827.060384,28.4660377 L826.952141,28.8153963 L818.134648,56.4777881 L790.786504,142.274768 L787.692892,151.980093 L778.759043,180.012419 C778.47793,180.985107 778.128589,181.942738 777.711205,182.878189 C775.320679,188.235883 770.893948,192.427079 765.404844,194.52976 C763.229089,195.363215 760.957064,195.841472 758.672365,195.966696 C758.650318,195.966885 758.627981,195.968087 758.605643,195.969255 C758.474084,195.977065 758.342818,195.982696 758.211528,195.987163 C758.189007,195.987133 758.166655,195.98787 758.144303,195.988574 C758.027003,195.992985 757.909409,195.995698 757.79181,195.997477 C757.74349,195.997628 757.695496,195.998221 757.647497,195.998659 C757.547447,196.000058 757.447002,196.000247 757.346563,195.999756 C757.294775,195.999139 757.243091,195.998731 757.191405,195.998142 C757.061703,195.996916 756.932089,195.994243 756.802509,195.990437 L756.740209,195.988422 L756.740209,195.988422 L756.426555,195.976213 L756.426555,195.976213 C756.359065,195.973167 756.292049,195.969789 756.225039,195.966108 C756.174502,195.963165 756.123508,195.960164 756.072524,195.956988 C755.954698,195.949914 755.837392,195.941723 755.720122,195.932598 C755.707457,195.93123 755.694119,195.930175 755.680782,195.929107 C754.011174,195.796559 752.349823,195.474483 750.728497,194.960474 C745.124728,193.183908 740.458129,189.260044 737.755299,184.052086 C737.285012,183.145913 736.880881,182.213778 736.543508,181.262712 L726.026668,153.953116 L722.30449,144.288798 L698.999,83.78 L675.694562,144.288798 L671.972384,153.953116 L661.467823,181.230692 C661.128179,182.192858 660.720265,183.135745 660.244701,184.052086 C657.541871,189.260044 652.875272,193.183908 647.271503,194.960474 C645.644028,195.476432 643.976224,195.798999 642.300866,195.930955 C642.294587,195.930991 642.288918,195.931438 642.28325,195.931883 C642.16161,195.941822 642.039304,195.950343 641.916972,195.95785 L641.778548,195.965712 L641.778548,195.965712 C641.708285,195.969783 641.637601,195.973341 641.566912,195.976561 C641.464513,195.981185 641.362503,195.985178 641.260471,195.988468 C641.237781,195.989121 641.214771,195.989815 641.19176,195.990474 C641.063965,195.994302 640.936351,195.996922 640.808719,195.998443 C640.756575,195.998735 640.704558,195.999144 640.652544,195.999372 L640.351161,195.999189 L640.351161,195.999189 C640.304838,195.998222 640.258176,195.997647 640.211519,195.996926 C640.091641,195.995749 639.972048,195.992996 639.852473,195.989277 C639.83435,195.987899 639.816002,195.987297 639.797654,195.986671 C639.661893,195.982947 639.526294,195.977152 639.390737,195.970114 C639.372352,195.968101 639.35435,195.967134 639.336348,195.966146 C637.048623,195.842868 634.77314,195.364432 632.594208,194.52976 C627.105104,192.427079 622.678373,188.235883 620.287847,182.878189 C619.86546,181.931526 619.512756,180.962146 619.22993,179.977435 L610.307108,151.980093 L607.213496,142.274768 L579.865352,56.4777881 L571.047859,28.8153963 C567.338312,17.1777475 573.790917,4.74452809 585.460158,1.04502178 C597.129399,-2.65448181 609.59637,3.7806549 613.305918,15.4183029 L625.518165,53.7307181 L642.524,107.082 L667.267267,42.8389787 L678.301844,14.1887014 C679.628522,10.7441038 681.725368,7.82068161 684.321172,5.53879006 C684.361504,5.50305523 684.40218,5.46748806 684.443002,5.43205813 L684.575669,5.31848389 L684.575669,5.31848389 C685.862834,4.21842716 687.293311,3.25399847 688.852667,2.45591223 C688.955872,2.40383223 689.058893,2.35200749 689.162305,2.30098593 C689.404385,2.18127497 689.649877,2.06587932 689.898347,1.95457942 C689.934504,1.9381283 689.971219,1.92176612 690.007977,1.90550305 C690.170254,1.83417686 690.333211,1.76451172 690.497404,1.69660665 C691.121942,1.43718851 691.758848,1.20660431 692.405614,1.00525091 L692.453543,0.991098927 L692.453543,0.991098927 C692.641746,0.932261592 692.830632,0.876649289 693.020294,0.823529208 C693.067281,0.810776095 693.114258,0.797760559 693.161249,0.784906889 C693.359747,0.730355305 693.559144,0.678870423 693.759317,0.630138219 C693.78215,0.62462142 693.804517,0.619202371 693.826887,0.613819524 C693.975024,0.578222482 694.123976,0.54406552 694.273326,0.511433603 C694.491854,0.463419448 694.710054,0.419107034 694.928357,0.37817672 C695.015846,0.362211601 695.103728,0.346305928 695.191729,0.330926364 L695.557843,0.269536974 C695.87034,0.220242802 696.182922,0.177813296 696.495397,0.142163765 C696.52184,0.139740037 696.548183,0.136781145 696.574535,0.133869207 C696.76674,0.112052405 696.959087,0.0933720852 697.151343,0.0772398632 C697.193626,0.0742014537 697.235982,0.0707625658 697.278357,0.0674450659 C697.48411,0.0508849086 697.689588,0.0377409901 697.894895,0.0274830478 C697.906009,0.0272711018 697.917666,0.0266944227 697.929324,0.0261269414 C698.124006,0.0163727888 698.317968,0.00956229085 698.511729,0.00531053143 C698.562455,0.00434047346 698.613785,0.00337519247 698.665133,0.0025887937 C698.710825,0.00179456061 698.755825,0.00125930223 698.800813,0.000861733839 L699.198239,0.000861733839 Z M1137.19824,0.000861733839 C1137.24323,0.00125930223 1137.28823,0.00179456061 1137.33324,0.00246776584 C1137.38527,0.00337519247 1137.4366,0.00434047346 1137.48791,0.00548425202 C1137.68108,0.00956229085 1137.87505,0.0163727888 1138.06916,0.0257624809 C1138.08139,0.0266944227 1138.09304,0.0272711018 1138.1047,0.0278569742 C1138.30977,0.0377564975 1138.51556,0.0509246556 1138.72147,0.0670118263 C1138.76207,0.0706860436 1138.80242,0.0739588201 1138.84276,0.0773415927 C1139.03635,0.0930210002 1139.2305,0.111852602 1139.42471,0.133300594 C1139.45087,0.136781145 1139.47721,0.139740037 1139.50355,0.14274583 C1139.81613,0.177813296 1140.12871,0.220242802 1140.44121,0.269536974 L1140.80732,0.330926364 C1140.94693,0.355325592 1141.08624,0.381048977 1141.22524,0.408088164 C1141.39215,0.440248063 1141.55874,0.474701003 1141.72523,0.511142893 C1141.87508,0.54406552 1142.02403,0.578222482 1142.17256,0.613893944 C1142.19453,0.619202371 1142.2169,0.62462142 1142.23927,0.630076704 C1142.43991,0.678870423 1142.63931,0.730355305 1142.83787,0.784566988 C1142.88479,0.797760559 1142.93177,0.810776095 1142.97873,0.82395379 C1143.16842,0.876649289 1143.35731,0.932261592 1143.54536,0.99034343 L1143.59355,1.00601661 L1143.59355,1.00601661 C1144.2402,1.20660431 1144.87711,1.43718851 1145.50207,1.69607859 C1145.54356,1.71394014 1145.58539,1.73138831 1145.62714,1.74895065 L1145.70192,1.78000618 C1145.85325,1.84441954 1146.00386,1.91050037 1146.15371,1.97823538 C1146.38407,2.08230992 1146.61191,2.18976347 1146.83713,2.30065443 L1147.1458,2.45645556 L1147.1458,2.45645556 C1148.70574,3.25399847 1150.13622,4.21842716 1151.42409,5.3184416 C1151.46761,5.35618448 1151.5117,5.39406788 1151.55565,5.43213353 C1151.59687,5.46748806 1151.63755,5.50305523 1151.67808,5.53875864 C1154.15008,7.71201861 1156.1697,10.4671373 1157.50247,13.7001744 L1157.69721,14.1887014 L1168.73178,42.8389787 L1193.475,107.082 L1210.48184,53.7307181 L1222.69408,15.4183029 C1226.40363,3.7806549 1238.8706,-2.65448181 1250.53984,1.04502178 C1262.09239,4.70753303 1268.53211,16.9299565 1265.06038,28.4660377 L1264.95214,28.8153963 L1256.13465,56.4777881 L1228.7865,142.274768 L1225.69289,151.980093 L1216.75904,180.012419 C1216.47793,180.985107 1216.12859,181.942738 1215.7112,182.878189 C1213.32068,188.235883 1208.89395,192.427079 1203.40484,194.52976 C1201.22909,195.363215 1198.95706,195.841472 1196.67237,195.966696 C1196.65032,195.966885 1196.62798,195.968087 1196.60564,195.969255 C1196.47408,195.977065 1196.34282,195.982696 1196.21153,195.987163 C1196.18901,195.987133 1196.16666,195.98787 1196.1443,195.988574 C1196.027,195.992985 1195.90941,195.995698 1195.79181,195.997477 C1195.74349,195.997628 1195.6955,195.998221 1195.6475,195.998659 C1195.54745,196.000058 1195.447,196.000247 1195.34656,195.999756 C1195.29477,195.999139 1195.24309,195.998731 1195.19141,195.998142 C1195.0617,195.996916 1194.93209,195.994243 1194.80251,195.990437 L1194.74021,195.988422 L1194.74021,195.988422 L1194.42655,195.976213 L1194.42655,195.976213 C1194.35907,195.973167 1194.29205,195.969789 1194.22504,195.966108 C1194.1745,195.963165 1194.12351,195.960164 1194.07252,195.956988 C1193.9547,195.949914 1193.83739,195.941723 1193.72012,195.932598 C1193.70746,195.93123 1193.69412,195.930175 1193.68078,195.929107 C1192.01117,195.796559 1190.34982,195.474483 1188.7285,194.960474 C1183.12473,193.183908 1178.45813,189.260044 1175.7553,184.052086 C1175.28501,183.145913 1174.88088,182.213778 1174.54351,181.262712 L1164.02667,153.953116 L1160.30449,144.288798 L1136.999,83.78 L1113.69456,144.288798 L1109.97238,153.953116 L1099.46782,181.230692 C1099.12818,182.192858 1098.72027,183.135745 1098.2447,184.052086 C1095.54187,189.260044 1090.87527,193.183908 1085.2715,194.960474 C1083.64403,195.476432 1081.97622,195.798999 1080.30087,195.930955 C1080.29459,195.930991 1080.28892,195.931438 1080.28325,195.931883 C1080.16161,195.941822 1080.0393,195.950343 1079.91697,195.95785 L1079.77855,195.965712 L1079.77855,195.965712 C1079.70829,195.969783 1079.6376,195.973341 1079.56691,195.976561 C1079.46451,195.981185 1079.3625,195.985178 1079.26047,195.988468 C1079.23778,195.989121 1079.21477,195.989815 1079.19176,195.990474 C1079.06397,195.994302 1078.93635,195.996922 1078.80872,195.998443 C1078.75658,195.998735 1078.70456,195.999144 1078.65254,195.999372 L1078.35116,195.999189 L1078.35116,195.999189 C1078.30484,195.998222 1078.25818,195.997647 1078.21152,195.996926 C1078.09164,195.995749 1077.97205,195.992996 1077.85247,195.989277 C1077.83435,195.987899 1077.816,195.987297 1077.79765,195.986671 C1077.66189,195.982947 1077.52629,195.977152 1077.39074,195.970114 C1077.37235,195.968101 1077.35435,195.967134 1077.33635,195.966146 C1075.04862,195.842868 1072.77314,195.364432 1070.59421,194.52976 C1065.1051,192.427079 1060.67837,188.235883 1058.28785,182.878189 C1057.86546,181.931526 1057.51276,180.962146 1057.22993,179.977435 L1048.30711,151.980093 L1045.2135,142.274768 L1017.86535,56.4777881 L1009.04786,28.8153963 C1005.33831,17.1777475 1011.79092,4.74452809 1023.46016,1.04502178 C1035.1294,-2.65448181 1047.59637,3.7806549 1051.30592,15.4183029 L1063.51816,53.7307181 L1080.524,107.082 L1105.26727,42.8389787 L1116.30184,14.1887014 C1117.62852,10.7441038 1119.72537,7.82068161 1122.32117,5.53879006 C1122.3615,5.50305523 1122.40218,5.46748806 1122.443,5.43205813 L1122.57567,5.31848389 L1122.57567,5.31848389 C1123.86283,4.21842716 1125.29331,3.25399847 1126.85267,2.45591223 C1126.95587,2.40383223 1127.05889,2.35200749 1127.1623,2.30098593 C1127.40438,2.18127497 1127.64988,2.06587932 1127.89835,1.95457942 C1127.9345,1.9381283 1127.97122,1.92176612 1128.00798,1.90550305 C1128.17025,1.83417686 1128.33321,1.76451172 1128.4974,1.69660665 C1129.12194,1.43718851 1129.75885,1.20660431 1130.40561,1.00525091 L1130.45354,0.991098927 L1130.45354,0.991098927 C1130.64175,0.932261592 1130.83063,0.876649289 1131.02029,0.823529208 C1131.06728,0.810776095 1131.11426,0.797760559 1131.16125,0.784906889 C1131.35975,0.730355305 1131.55914,0.678870423 1131.75932,0.630138219 C1131.78215,0.62462142 1131.80452,0.619202371 1131.82689,0.613819524 C1131.97502,0.578222482 1132.12398,0.54406552 1132.27333,0.511433603 C1132.49185,0.463419448 1132.71005,0.419107034 1132.92836,0.37817672 C1133.01585,0.362211601 1133.10373,0.346305928 1133.19173,0.330926364 L1133.55784,0.269536974 C1133.87034,0.220242802 1134.18292,0.177813296 1134.4954,0.142163765 C1134.52184,0.139740037 1134.54818,0.136781145 1134.57453,0.133869207 C1134.76674,0.112052405 1134.95909,0.0933720852 1135.15134,0.0772398632 C1135.19363,0.0742014537 1135.23598,0.0707625658 1135.27836,0.0674450659 C1135.48411,0.0508849086 1135.68959,0.0377409901 1135.8949,0.0274830478 C1135.90601,0.0272711018 1135.91767,0.0266944227 1135.92932,0.0261269414 C1136.12401,0.0163727888 1136.31797,0.00956229085 1136.51173,0.00531053143 C1136.56246,0.00434047346 1136.61378,0.00337519247 1136.66513,0.0025887937 C1136.71082,0.00179456061 1136.75582,0.00125930223 1136.80081,0.000861733839 L1137.19824,0.000861733839 Z M918,60 C892.594902,60 872,80.5949015 872,106 C872,131.405098 892.594902,152 918,152 C943.405098,152 964,131.405098 964,106 C964,80.5949015 943.405098,60 918,60 Z" id="Combined-Shape-Copy-13" fill="#FF0020" fill-rule="nonzero"></path>
            <path d="M918,196 C873.056784,196 835.80779,163.05712 829.082544,120.000886 L874.169302,120.00028 C880.092406,138.559465 897.4766,152 918,152 C938.5234,152 955.907594,138.559465 961.830698,120.00028 L1006.91746,120.000886 C1000.19221,163.05712 962.943216,196 918,196 Z M797.886,120 L790.786504,142.274768 L787.692892,151.980093 L778.759043,180.012419 C778.47793,180.985107 778.128589,181.942738 777.711205,182.878189 C775.320679,188.235883 770.893948,192.427079 765.404844,194.52976 C763.229089,195.363215 760.957064,195.841472 758.672365,195.966696 C758.650318,195.966885 758.627981,195.968087 758.605643,195.969255 C758.474084,195.977065 758.342818,195.982696 758.211528,195.987163 C758.189007,195.987133 758.166655,195.98787 758.144303,195.988574 C758.027003,195.992985 757.909409,195.995698 757.79181,195.997477 C757.74349,195.997628 757.695496,195.998221 757.647497,195.998659 C757.547447,196.000058 757.447002,196.000247 757.346563,195.999756 C757.294775,195.999139 757.243091,195.998731 757.191405,195.998142 C757.061703,195.996916 756.932089,195.994243 756.802509,195.990437 L756.740209,195.988422 L756.426555,195.976213 C756.359065,195.973167 756.292049,195.969789 756.225039,195.966108 C756.174502,195.963165 756.123508,195.960164 756.072524,195.956988 C755.954698,195.949914 755.837392,195.941723 755.720122,195.932598 C755.707457,195.93123 755.694119,195.930175 755.680782,195.929107 C754.011174,195.796559 752.349823,195.474483 750.728497,194.960474 C745.124728,193.183908 740.458129,189.260044 737.755299,184.052086 C737.285012,183.145913 736.880881,182.213778 736.543508,181.262712 L726.026668,153.953116 L722.30449,144.288798 L712.949,120 L797.886,120 Z M685.048,120 L675.694562,144.288798 L671.972384,153.953116 L661.467823,181.230692 C661.128179,182.192858 660.720265,183.135745 660.244701,184.052086 C657.541871,189.260044 652.875272,193.183908 647.271503,194.960474 C645.644028,195.476432 643.976224,195.798999 642.300866,195.930955 C642.294587,195.930991 642.288918,195.931438 642.28325,195.931883 C642.16161,195.941822 642.039304,195.950343 641.916972,195.95785 L641.778548,195.965712 C641.708285,195.969783 641.637601,195.973341 641.566912,195.976561 C641.464513,195.981185 641.362503,195.985178 641.260471,195.988468 C641.237781,195.989121 641.214771,195.989815 641.19176,195.990474 C641.063965,195.994302 640.936351,195.996922 640.808719,195.998443 C640.756575,195.998735 640.704558,195.999144 640.652544,195.999372 L640.351161,195.999189 C640.304838,195.998222 640.258176,195.997647 640.211519,195.996926 C640.091641,195.995749 639.972048,195.992996 639.852473,195.989277 C639.83435,195.987899 639.816002,195.987297 639.797654,195.986671 C639.661893,195.982947 639.526294,195.977152 639.390737,195.970114 C639.372352,195.968101 639.35435,195.967134 639.336348,195.966146 C637.048623,195.842868 634.77314,195.364432 632.594208,194.52976 C627.105104,192.427079 622.678373,188.235883 620.287847,182.878189 C619.86546,181.931526 619.512756,180.962146 619.22993,179.977435 L610.307108,151.980093 L607.213496,142.274768 L600.113,120 L685.048,120 Z M1235.886,120 L1228.7865,142.274768 L1225.69289,151.980093 L1216.75904,180.012419 C1216.47793,180.985107 1216.12859,181.942738 1215.7112,182.878189 C1213.32068,188.235883 1208.89395,192.427079 1203.40484,194.52976 C1201.22909,195.363215 1198.95706,195.841472 1196.67237,195.966696 C1196.65032,195.966885 1196.62798,195.968087 1196.60564,195.969255 C1196.47408,195.977065 1196.34282,195.982696 1196.21153,195.987163 C1196.18901,195.987133 1196.16666,195.98787 1196.1443,195.988574 C1196.027,195.992985 1195.90941,195.995698 1195.79181,195.997477 C1195.74349,195.997628 1195.6955,195.998221 1195.6475,195.998659 C1195.54745,196.000058 1195.447,196.000247 1195.34656,195.999756 C1195.29477,195.999139 1195.24309,195.998731 1195.19141,195.998142 C1195.0617,195.996916 1194.93209,195.994243 1194.80251,195.990437 L1194.74021,195.988422 L1194.42655,195.976213 C1194.35907,195.973167 1194.29205,195.969789 1194.22504,195.966108 C1194.1745,195.963165 1194.12351,195.960164 1194.07252,195.956988 C1193.9547,195.949914 1193.83739,195.941723 1193.72012,195.932598 C1193.70746,195.93123 1193.69412,195.930175 1193.68078,195.929107 C1192.01117,195.796559 1190.34982,195.474483 1188.7285,194.960474 C1183.12473,193.183908 1178.45813,189.260044 1175.7553,184.052086 C1175.28501,183.145913 1174.88088,182.213778 1174.54351,181.262712 L1164.02667,153.953116 L1160.30449,144.288798 L1150.949,120 L1235.886,120 Z M1123.049,120 L1113.69456,144.288798 L1109.97238,153.953116 L1099.46782,181.230692 C1099.12818,182.192858 1098.72027,183.135745 1098.2447,184.052086 C1095.54187,189.260044 1090.87527,193.183908 1085.2715,194.960474 C1083.64403,195.476432 1081.97622,195.798999 1080.30087,195.930955 C1080.29459,195.930991 1080.28892,195.931438 1080.28325,195.931883 C1080.16161,195.941822 1080.0393,195.950343 1079.91697,195.95785 L1079.77855,195.965712 C1079.70829,195.969783 1079.6376,195.973341 1079.56691,195.976561 C1079.46451,195.981185 1079.3625,195.985178 1079.26047,195.988468 C1079.23778,195.989121 1079.21477,195.989815 1079.19176,195.990474 C1079.06397,195.994302 1078.93635,195.996922 1078.80872,195.998443 C1078.75658,195.998735 1078.70456,195.999144 1078.65254,195.999372 L1078.35116,195.999189 C1078.30484,195.998222 1078.25818,195.997647 1078.21152,195.996926 C1078.09164,195.995749 1077.97205,195.992996 1077.85247,195.989277 C1077.83435,195.987899 1077.816,195.987297 1077.79765,195.986671 C1077.66189,195.982947 1077.52629,195.977152 1077.39074,195.970114 C1077.37235,195.968101 1077.35435,195.967134 1077.33635,195.966146 C1075.04862,195.842868 1072.77314,195.364432 1070.59421,194.52976 C1065.1051,192.427079 1060.67837,188.235883 1058.28785,182.878189 C1057.86546,181.931526 1057.51276,180.962146 1057.22993,179.977435 L1048.30711,151.980093 L1045.2135,142.274768 L1038.113,120 L1123.049,120 Z" id="Combined-Shape-Copy-17" fill-opacity="0.5" fill="#FFFFFF" fill-rule="nonzero"></path>
        </g>
    </g>
</svg>